# xmcd
#
# Track frame offsets: 
#        150
#        15145
#        34918
#        52928
#        72536
#        93583
#        112388
#        133748
#        152875
#        173518
#        198656
#        219388
#        237303
#        257363
#        275814
#
# Disc length: 3944 seconds
#
# Revision: 1
# Processed by: cddbd v1.5.2PL0 Copyright (c) Steve Scherf et al.
# Submitted via: ExactAudioCopyFreeDBPlugin 1.0
#
DISCID=d90f660f
DTITLE=Noel Cabangon - Byahe
DYEAR=2009
DGENRE=Acoustic
TTITLE0=Kahit Maputi Na Ang Buhok Ko
TTITLE1=Tuloy Pa Rin
TTITLE2=Binibini
TTITLE3=Ang Aking Awitin
TTITLE4=Di Na Natuto
TTITLE5=Ang Buhay Nga Naman
TTITLE6=Kanlungan (With Aia De Leon)
TTITLE7=Dito Sa Kanto (With Chito Miranda)
TTITLE8=Kung Kailangan Mo Ako
TTITLE9=Ipagpatawad Mo
TTITLE10=Pag-Ibig
TTITLE11=Pinay
TTITLE12=Tao
TTITLE13=Pagbabalik
TTITLE14=Kay Ganda Ng Ating Musika
EXTD=
EXTT0=
EXTT1=
EXTT2=
EXTT3=
EXTT4=
EXTT5=
EXTT6=
EXTT7=
EXTT8=
EXTT9=
EXTT10=
EXTT11=
EXTT12=
EXTT13=
EXTT14=
PLAYORDER=
